# xmcd
#
# Track frame offsets:
#	150
#	11880
#	24000
#	36462
#	48037
#	61212
#	72287
#	82487
#	93102
#	106252
#	119200
#	128537
#	138572
#	152350
#	162037
#	173867
#	188807
#	198485
#	211212
#	225017
#
# Disc length: 3172 seconds
#
# Revision: 1
# Processed by: cddbd v1.4b42PL1 Copyright (c) Steve Scherf et al.
# Submitted via: audiograbber 1.80
#
DISCID=030c6214
DTITLE=Various Artist - Kings of Country - Disc 4
DYEAR=1900
DGENRE=
TTITLE0=Arnold, Eddy - Bouquet of Roses
TTITLE1=Arnold, Eddy - Make the World Go Away
TTITLE2=Arnold, Eddy - Just a Little Lovin'
TTITLE3=Arnold, Eddy - I'll Hold You in My Heart
TTITLE4=Arnold, Eddy - Anytime
TTITLE5=Reeves, Jim - Welcome to My World
TTITLE6=Reeves, Jim - Is It Really Over?
TTITLE7=Reeves, Jim - He'll Have to Go
TTITLE8=Reeves, Jim - Distant Drums
TTITLE9=Reeves, Jim - Four Walls
TTITLE10=Pride, Charley - Kiss an Angel Good Mornin'
TTITLE11=Pride, Charley - Is Anybody Goin' to San Antone?
TTITLE12=Pride, Charley - All I Have to Offer You (Is Me)
TTITLE13=Pride, Charley - Why Baby Why
TTITLE14=Pride, Charley - She's Just an Old Love Turned Memory
TTITLE15=Jennings, Waylon - Luckenbach, Texas (Back to the Basics of Love)
TTITLE16=Jennings, Waylon - Theme from The Dukes of Hazzard
TTITLE17=Jennings, Waylon - I'm a Ramblin' Man
TTITLE18=Jennings, Waylon - Good Hearted Woman
TTITLE19=Jennings, Waylon - Are You Sure Hank Done It This Way?
EXTD=Reader's Digest Music\n
EXTT0=
EXTT1=
EXTT2=
EXTT3=
EXTT4=
EXTT5=
EXTT6=
EXTT7=
EXTT8=
EXTT9=
EXTT10=
EXTT11=
EXTT12=
EXTT13=
EXTT14=
EXTT15=
EXTT16=
EXTT17=
EXTT18=
EXTT19=
PLAYORDER=
